<svg viewBox="0 0 512 512" fill="none" xmlns="http://www.w3.org/2000/svg">
<path fill-rule="evenodd" clip-rule="evenodd" d="M56.5672 293.972V273.002H102.553V312.238C103.969 311.317 105.482 310.482 107.091 309.736C112.385 307.278 117.773 305.576 123.256 304.631C128.74 303.685 133.183 303.213 136.586 303.213C157.573 303.213 173.645 309.641 184.8 322.498C195.955 335.166 201.533 354.073 201.533 379.22C201.533 393.212 199.737 405.123 196.144 414.955C192.552 424.787 187.352 432.728 180.546 438.778C173.739 444.64 165.609 448.894 156.155 451.541C146.702 454.377 136.113 455.795 124.391 455.795C116.261 455.795 108.131 455.228 100 454.093C92.0593 452.959 84.78 451.068 78.1624 448.421C71.5448 445.585 66.2508 441.614 62.2802 436.509C58.4987 431.404 56.608 424.692 56.608 416.373V293.972H56.5672ZM102.553 264.14H56.5672V152.45H102.53V262.243H102.553V264.14ZM56 124.567C56 122.045 58.0445 120 60.5666 120H97.9632C100.485 120 102.53 122.045 102.53 124.567V143.924H56V124.567ZM111.559 162.377C114.962 160.486 119.689 158.595 125.739 156.704C131.79 154.814 138.502 153.112 145.876 151.599C153.25 149.898 160.718 148.574 168.281 147.629C170.137 147.35 171.624 147.106 172.902 146.896C176.832 146.25 178.797 145.927 183.505 145.927C196.172 145.927 207.139 147.44 216.403 150.465C225.668 153.49 232.758 158.69 237.674 166.064C242.779 173.437 245.332 183.553 245.332 196.41V293.972H198.536V207.187C198.536 203.406 197.969 200.097 196.834 197.261C195.889 194.236 194.376 191.778 192.296 189.887C190.406 187.996 187.759 186.578 184.355 185.633C183.056 185.251 182.693 184.946 182.422 184.718C182.023 184.382 181.824 184.215 179.121 184.215C175.15 184.215 170.266 184.782 166.296 185.916C162.514 186.862 159.867 187.902 158.355 189.036V293.972H111.559V162.377ZM266.939 156.704C260.889 158.595 256.162 160.486 252.759 162.377V264.304H299.554V189.036C301.067 187.902 303.714 186.862 307.495 185.916C311.466 184.782 315.437 184.215 319.407 184.215C323.945 184.215 333.301 184.687 336.515 185.633C339.918 186.578 342.565 187.996 344.456 189.887C346.536 191.778 348.048 194.236 348.994 197.261C350.128 200.097 350.695 203.406 350.695 207.187V293.972H350.947V451.541H397.459V293.972H397.491V196.41C397.491 183.553 394.939 173.437 389.834 166.064C384.918 158.69 377.828 153.49 368.563 150.465C359.298 147.44 348.332 145.927 335.664 145.927C329.425 145.927 317.044 146.494 309.481 147.629C301.918 148.574 294.449 149.898 287.075 151.599C279.702 153.112 272.989 154.814 266.939 156.704ZM456 451.541H409.488V124.567C409.488 122.045 411.532 120 414.054 120H451.433C453.955 120 456 122.045 456 124.567V451.541ZM141.691 412.97C137.153 415.617 131.292 416.94 124.107 416.94C119.759 416.94 115.977 416.562 112.763 415.806C109.549 415.05 106.996 413.726 105.105 411.835C103.404 409.755 102.553 407.203 102.553 404.178V345.187C105.767 343.485 109.36 342.256 113.33 341.5C117.301 340.555 120.893 340.082 124.107 340.082C129.969 340.082 135.168 341.405 139.706 344.052C144.433 346.51 148.12 350.765 150.767 356.815C153.603 362.865 155.021 371.374 155.021 382.34C155.021 389.525 153.981 395.764 151.901 401.058C149.821 406.163 146.418 410.134 141.691 412.97ZM240.322 447.305C251.666 453.166 264.713 456.097 279.46 456.097C290.994 456.097 300.92 455.151 309.239 453.261C317.748 451.37 325.311 449.195 331.928 446.738V407.032C328.903 407.977 325.216 409.301 320.867 411.003C316.519 412.704 311.792 414.217 306.687 415.54C301.582 416.675 296.477 417.242 291.372 417.242C277.191 417.242 266.981 413.839 260.742 407.032C259.358 405.432 258.133 403.674 257.066 401.758H206.805C208.353 409.023 210.827 415.696 214.23 421.78C220.469 432.746 229.167 441.254 240.322 447.305ZM253.458 392.568L253.473 392.625H205.381C205.041 389.311 204.871 385.889 204.871 382.358C204.871 357.211 211.205 337.642 223.873 323.651C236.541 309.659 254.786 302.663 278.609 302.663C294.492 302.663 307.349 306.067 317.18 312.873C327.012 319.68 334.292 329.796 339.018 343.22C343.745 356.644 346.014 373.093 345.825 392.568H253.458ZM252.456 363.923C252.976 360.124 253.753 356.816 254.786 353.997C257.055 348.325 260.08 344.26 263.862 341.802C267.643 339.155 271.803 337.831 276.341 337.831C284.849 337.831 290.899 340.951 294.492 347.19C296.851 350.965 298.511 356.543 299.472 363.923H252.456ZM252.363 276.177C252.363 273.655 254.408 271.611 256.93 271.611H295.289C297.811 271.611 299.856 273.655 299.856 276.177V294.444H252.363V276.177Z" fill="black"/>
</svg>
